<mxfile host="app.diagrams.net" modified="2023-10-18T20:29:38.311Z" agent="Mozilla/5.0 (Windows NT 10.0; Win64; x64) AppleWebKit/537.36 (KHTML, like Gecko) Chrome/118.0.0.0 Safari/537.36 Edg/118.0.2088.46" etag="FlXo7YCKU6iU5M1oo47n" version="22.0.4" type="device">
  <diagram id="C5RBs43oDa-KdzZeNtuy" name="Page-1">
    <mxGraphModel dx="1002" dy="569" grid="0" gridSize="10" guides="1" tooltips="1" connect="1" arrows="1" fold="1" page="1" pageScale="1" pageWidth="827" pageHeight="1169" math="0" shadow="0">
      <root>
        <mxCell id="WIyWlLk6GJQsqaUBKTNV-0" />
        <mxCell id="WIyWlLk6GJQsqaUBKTNV-1" parent="WIyWlLk6GJQsqaUBKTNV-0" />
        <mxCell id="KU4GNVuRxA_D2BBun4rc-2" value="" style="edgeStyle=orthogonalEdgeStyle;rounded=0;orthogonalLoop=1;jettySize=auto;html=1;" edge="1" parent="WIyWlLk6GJQsqaUBKTNV-1" source="KU4GNVuRxA_D2BBun4rc-0" target="KU4GNVuRxA_D2BBun4rc-1">
          <mxGeometry relative="1" as="geometry" />
        </mxCell>
        <mxCell id="KU4GNVuRxA_D2BBun4rc-0" value="Начало" style="rounded=1;whiteSpace=wrap;html=1;" vertex="1" parent="WIyWlLk6GJQsqaUBKTNV-1">
          <mxGeometry x="80" y="30" width="120" height="40" as="geometry" />
        </mxCell>
        <mxCell id="KU4GNVuRxA_D2BBun4rc-4" style="edgeStyle=orthogonalEdgeStyle;rounded=0;orthogonalLoop=1;jettySize=auto;html=1;entryX=0.5;entryY=0;entryDx=0;entryDy=0;" edge="1" parent="WIyWlLk6GJQsqaUBKTNV-1" source="KU4GNVuRxA_D2BBun4rc-1" target="KU4GNVuRxA_D2BBun4rc-3">
          <mxGeometry relative="1" as="geometry" />
        </mxCell>
        <mxCell id="KU4GNVuRxA_D2BBun4rc-10" value="" style="edgeStyle=orthogonalEdgeStyle;rounded=0;orthogonalLoop=1;jettySize=auto;html=1;" edge="1" parent="WIyWlLk6GJQsqaUBKTNV-1" source="KU4GNVuRxA_D2BBun4rc-1" target="KU4GNVuRxA_D2BBun4rc-9">
          <mxGeometry relative="1" as="geometry" />
        </mxCell>
        <mxCell id="KU4GNVuRxA_D2BBun4rc-1" value="i от 1 до 5, шаг 1" style="shape=hexagon;perimeter=hexagonPerimeter2;whiteSpace=wrap;html=1;fixedSize=1;" vertex="1" parent="WIyWlLk6GJQsqaUBKTNV-1">
          <mxGeometry x="80" y="100" width="120" height="50" as="geometry" />
        </mxCell>
        <mxCell id="KU4GNVuRxA_D2BBun4rc-6" value="" style="edgeStyle=orthogonalEdgeStyle;rounded=0;orthogonalLoop=1;jettySize=auto;html=1;" edge="1" parent="WIyWlLk6GJQsqaUBKTNV-1" source="KU4GNVuRxA_D2BBun4rc-3" target="KU4GNVuRxA_D2BBun4rc-5">
          <mxGeometry relative="1" as="geometry" />
        </mxCell>
        <mxCell id="KU4GNVuRxA_D2BBun4rc-3" value="Ввод заглавной буквы фамилии" style="shape=parallelogram;perimeter=parallelogramPerimeter;whiteSpace=wrap;html=1;fixedSize=1;" vertex="1" parent="WIyWlLk6GJQsqaUBKTNV-1">
          <mxGeometry x="60" y="180" width="160" height="40" as="geometry" />
        </mxCell>
        <mxCell id="KU4GNVuRxA_D2BBun4rc-8" style="edgeStyle=orthogonalEdgeStyle;rounded=0;orthogonalLoop=1;jettySize=auto;html=1;entryX=0;entryY=0.5;entryDx=0;entryDy=0;" edge="1" parent="WIyWlLk6GJQsqaUBKTNV-1" source="KU4GNVuRxA_D2BBun4rc-5" target="KU4GNVuRxA_D2BBun4rc-1">
          <mxGeometry relative="1" as="geometry">
            <Array as="points">
              <mxPoint x="140" y="300" />
              <mxPoint x="50" y="300" />
              <mxPoint x="50" y="125" />
            </Array>
          </mxGeometry>
        </mxCell>
        <mxCell id="KU4GNVuRxA_D2BBun4rc-5" value="заглавная[i]=заглавная буква фамилии" style="whiteSpace=wrap;html=1;" vertex="1" parent="WIyWlLk6GJQsqaUBKTNV-1">
          <mxGeometry x="70" y="250" width="140" height="40" as="geometry" />
        </mxCell>
        <mxCell id="KU4GNVuRxA_D2BBun4rc-12" value="" style="edgeStyle=orthogonalEdgeStyle;rounded=0;orthogonalLoop=1;jettySize=auto;html=1;" edge="1" parent="WIyWlLk6GJQsqaUBKTNV-1" source="KU4GNVuRxA_D2BBun4rc-9">
          <mxGeometry relative="1" as="geometry">
            <mxPoint x="350" y="180" as="targetPoint" />
          </mxGeometry>
        </mxCell>
        <mxCell id="KU4GNVuRxA_D2BBun4rc-23" style="edgeStyle=orthogonalEdgeStyle;rounded=0;orthogonalLoop=1;jettySize=auto;html=1;entryX=0;entryY=0.5;entryDx=0;entryDy=0;" edge="1" parent="WIyWlLk6GJQsqaUBKTNV-1" source="KU4GNVuRxA_D2BBun4rc-9" target="KU4GNVuRxA_D2BBun4rc-18">
          <mxGeometry relative="1" as="geometry" />
        </mxCell>
        <mxCell id="KU4GNVuRxA_D2BBun4rc-9" value="i от 1 до 5, шаг 1" style="shape=hexagon;perimeter=hexagonPerimeter2;whiteSpace=wrap;html=1;fixedSize=1;" vertex="1" parent="WIyWlLk6GJQsqaUBKTNV-1">
          <mxGeometry x="290" y="100" width="120" height="50" as="geometry" />
        </mxCell>
        <mxCell id="KU4GNVuRxA_D2BBun4rc-15" value="" style="edgeStyle=orthogonalEdgeStyle;rounded=0;orthogonalLoop=1;jettySize=auto;html=1;" edge="1" parent="WIyWlLk6GJQsqaUBKTNV-1" source="KU4GNVuRxA_D2BBun4rc-13" target="KU4GNVuRxA_D2BBun4rc-14">
          <mxGeometry relative="1" as="geometry" />
        </mxCell>
        <mxCell id="KU4GNVuRxA_D2BBun4rc-13" value="Ввод строчной буквы фамилии" style="shape=parallelogram;perimeter=parallelogramPerimeter;whiteSpace=wrap;html=1;fixedSize=1;" vertex="1" parent="WIyWlLk6GJQsqaUBKTNV-1">
          <mxGeometry x="270" y="180" width="160" height="40" as="geometry" />
        </mxCell>
        <mxCell id="KU4GNVuRxA_D2BBun4rc-16" style="edgeStyle=orthogonalEdgeStyle;rounded=0;orthogonalLoop=1;jettySize=auto;html=1;exitX=0.5;exitY=1;exitDx=0;exitDy=0;" edge="1" parent="WIyWlLk6GJQsqaUBKTNV-1" source="KU4GNVuRxA_D2BBun4rc-14">
          <mxGeometry relative="1" as="geometry">
            <mxPoint x="250" y="130" as="targetPoint" />
            <Array as="points">
              <mxPoint x="350" y="300" />
              <mxPoint x="251" y="300" />
            </Array>
          </mxGeometry>
        </mxCell>
        <mxCell id="KU4GNVuRxA_D2BBun4rc-14" value="прописная[i]=строчная буква фамилии" style="whiteSpace=wrap;html=1;" vertex="1" parent="WIyWlLk6GJQsqaUBKTNV-1">
          <mxGeometry x="280" y="250" width="140" height="40" as="geometry" />
        </mxCell>
        <mxCell id="KU4GNVuRxA_D2BBun4rc-17" value="" style="edgeStyle=orthogonalEdgeStyle;rounded=0;orthogonalLoop=1;jettySize=auto;html=1;" edge="1" parent="WIyWlLk6GJQsqaUBKTNV-1" source="KU4GNVuRxA_D2BBun4rc-18">
          <mxGeometry relative="1" as="geometry">
            <mxPoint x="540" y="180" as="targetPoint" />
          </mxGeometry>
        </mxCell>
        <mxCell id="KU4GNVuRxA_D2BBun4rc-30" value="" style="edgeStyle=orthogonalEdgeStyle;rounded=0;orthogonalLoop=1;jettySize=auto;html=1;" edge="1" parent="WIyWlLk6GJQsqaUBKTNV-1" source="KU4GNVuRxA_D2BBun4rc-18" target="KU4GNVuRxA_D2BBun4rc-29">
          <mxGeometry relative="1" as="geometry" />
        </mxCell>
        <mxCell id="KU4GNVuRxA_D2BBun4rc-18" value="i от 1 до 5, шаг 1" style="shape=hexagon;perimeter=hexagonPerimeter2;whiteSpace=wrap;html=1;fixedSize=1;" vertex="1" parent="WIyWlLk6GJQsqaUBKTNV-1">
          <mxGeometry x="480" y="100" width="120" height="50" as="geometry" />
        </mxCell>
        <mxCell id="KU4GNVuRxA_D2BBun4rc-32" style="edgeStyle=orthogonalEdgeStyle;rounded=0;orthogonalLoop=1;jettySize=auto;html=1;entryX=0.5;entryY=0;entryDx=0;entryDy=0;" edge="1" parent="WIyWlLk6GJQsqaUBKTNV-1" source="KU4GNVuRxA_D2BBun4rc-22" target="KU4GNVuRxA_D2BBun4rc-31">
          <mxGeometry relative="1" as="geometry" />
        </mxCell>
        <mxCell id="KU4GNVuRxA_D2BBun4rc-22" value="разница[i]= заглавная[i]- строчная[i]" style="whiteSpace=wrap;html=1;" vertex="1" parent="WIyWlLk6GJQsqaUBKTNV-1">
          <mxGeometry x="470" y="180" width="140" height="50" as="geometry" />
        </mxCell>
        <mxCell id="KU4GNVuRxA_D2BBun4rc-29" value="Конец" style="rounded=1;whiteSpace=wrap;html=1;" vertex="1" parent="WIyWlLk6GJQsqaUBKTNV-1">
          <mxGeometry x="640" y="100" width="120" height="50" as="geometry" />
        </mxCell>
        <mxCell id="KU4GNVuRxA_D2BBun4rc-33" style="edgeStyle=orthogonalEdgeStyle;rounded=0;orthogonalLoop=1;jettySize=auto;html=1;exitX=0.5;exitY=1;exitDx=0;exitDy=0;" edge="1" parent="WIyWlLk6GJQsqaUBKTNV-1" source="KU4GNVuRxA_D2BBun4rc-31">
          <mxGeometry relative="1" as="geometry">
            <mxPoint x="449.20001220703125" y="130" as="targetPoint" />
            <Array as="points">
              <mxPoint x="540" y="307" />
              <mxPoint x="449" y="307" />
            </Array>
          </mxGeometry>
        </mxCell>
        <mxCell id="KU4GNVuRxA_D2BBun4rc-31" value="Вывод разницы" style="shape=parallelogram;perimeter=parallelogramPerimeter;whiteSpace=wrap;html=1;fixedSize=1;" vertex="1" parent="WIyWlLk6GJQsqaUBKTNV-1">
          <mxGeometry x="470" y="254" width="140" height="40" as="geometry" />
        </mxCell>
      </root>
    </mxGraphModel>
  </diagram>
</mxfile>
